# xmcd
#
# Track frame offsets: 
#        150
#        21410
#        44155
#        70815
#        74742
#        91200
#        113330
#        150315
#        173595
#        196147
#        210050
#        229960
#        232760
#        255755
#        271057
#        285942
#        308422
#        321197
#
# Disc length: 4628 seconds
#
# Revision: 3
# Processed by: cddbd v1.5.2PL0 Copyright (c) Steve Scherf et al.
# Submitted via: ExactAudioCopyFreeDBPlugin 1.0
#
DISCID=db121212
DTITLE=Earth, Wind and Fire - The Eternal Dance [box set]
DYEAR=1992
DGENRE=SMB
TTITLE0=Fan the Fire
TTITLE1=Love is Life
TTITLE2=I Think About Lovin' You
TTITLE3=Interlude
TTITLE4=Time is on Your Side
TTITLE5=Where Have All the Flowers Gone
TTITLE6=Power
TTITLE7=Keep Your Head to the Sky
TTITLE8=Evil
TTITLE9=Mighty Mighty
TTITLE10=Feelin' Blue
TTITLE11=Hey Girl (interlude)
TTITLE12=Open Our Eyes
TTITLE13=Shining Star (alternate version)
TTITLE14=Happy Feelin'
TTITLE15=Reasons
TTITLE16=Shining Star
TTITLE17=That's The Way of the World
EXTD=
EXTT0=
EXTT1=
EXTT2=
EXTT3=
EXTT4=
EXTT5=
EXTT6=
EXTT7=
EXTT8=
EXTT9=
EXTT10=
EXTT11=
EXTT12=
EXTT13=
EXTT14=
EXTT15=
EXTT16=
EXTT17=
PLAYORDER=
